<svg width="185" height="184" viewBox="0 0 185 184" fill="none" xmlns="http://www.w3.org/2000/svg">
<g clip-path="url(#clip0_1_65)">
<g filter="url(#filter0_d_1_65)">
<path d="M51.9138 75.078L52.2369 76.0055C66.9189 73.8444 87.8175 77.0023 104.94 85.757L105.167 85.3118L104.94 85.757C115.093 90.9482 123.878 98.0696 129.307 107.133C134.729 116.183 136.825 127.202 133.557 140.251L133.556 140.252C133.472 140.594 133.124 140.804 132.781 140.719C132.439 140.632 132.229 140.283 132.315 139.94C135.496 127.239 133.424 116.474 128.077 107.628C122.738 98.7953 114.155 91.9076 104.355 86.8974C94.4664 81.8416 83.3059 78.6635 72.8543 77.3306C62.4102 75.9986 52.6311 76.5038 45.5166 78.8546L45.5163 78.8547C45.1728 78.9684 44.9815 78.8907 44.8697 78.8152C44.7325 78.7227 44.6554 78.5882 44.6358 78.549L44.6355 78.5484C44.6019 78.4811 44.5532 78.362 44.5547 78.227C44.5559 78.1129 44.5916 77.9476 44.7998 77.7556L44.7997 77.7557C44.7997 77.7557 44.8071 77.7492 44.826 77.7349C44.8458 77.72 44.8726 77.7008 44.9072 77.6769C44.9765 77.6292 45.0687 77.5689 45.1829 77.4965C45.4109 77.3521 45.7151 77.1672 46.0756 76.9527C46.7959 76.5239 47.7297 75.9832 48.7043 75.4233C49.3602 75.0465 50.0354 74.6606 50.6754 74.2948C51.9317 73.5767 53.0528 72.9359 53.6273 72.5933C54.3 72.1926 55.26 71.6924 56.4079 71.0964L56.5161 71.0403C57.6327 70.4605 58.9096 69.7976 60.2332 69.0652C62.9601 67.5563 65.9191 65.7344 68.1245 63.6984C69.3718 62.5483 70.4335 61.2943 70.9433 59.9494C71.466 58.5703 71.3977 57.1184 70.4311 55.6616C69.4559 54.1904 67.9638 53.3673 66.1886 52.9925C64.4233 52.6197 62.3509 52.6831 60.1488 52.998L60.1488 52.998C54.5056 53.8061 47.8034 56.4304 42.0324 59.3211C36.2692 62.2079 31.3547 65.401 29.3089 67.3899L29.3086 67.3902C29.0544 67.6377 28.6497 67.6313 28.4041 67.3789L28.404 67.3788C28.1571 67.1253 28.1623 66.7206 28.4171 66.4723C30.4325 64.512 35.4346 61.235 41.4129 58.2325C47.3837 55.2338 54.2482 52.5494 59.9668 51.7307C65.3059 50.9664 69.477 51.9042 71.4983 54.9522C72.622 56.647 72.798 58.2952 72.3181 59.8886C71.8305 61.5074 70.6527 63.1093 68.9925 64.6403L68.9924 64.6405C66.8183 66.6467 63.8698 68.4809 61.0874 70.0329C59.7227 70.7942 58.4058 71.4833 57.247 72.0898L57.1874 72.121C56.0205 72.7316 55.0061 73.2632 54.285 73.6931C53.8219 73.9678 52.9409 74.4841 51.9138 75.078Z" fill="black" stroke="black"/>
<path d="M133.235 140.243L132.633 138.958C132.372 138.402 132.117 137.848 131.863 137.295C130.995 135.408 130.138 133.547 129.118 131.749L129.118 131.749C125.605 125.551 120.648 119.868 114.645 116.04C114.344 115.85 113.949 115.939 113.758 116.235C113.568 116.535 113.657 116.931 113.954 117.121C119.813 120.852 124.607 126.389 128.003 132.38L128.003 132.38C129.031 134.196 129.905 136.098 130.769 137.979C131.191 138.898 131.612 139.813 132.047 140.711C132.062 140.741 132.097 140.817 132.144 140.918C132.215 141.072 132.313 141.283 132.406 141.475C132.489 141.649 132.574 141.821 132.648 141.961C132.686 142.031 132.718 142.09 132.745 142.136C132.77 142.177 132.783 142.196 132.786 142.2C132.787 142.201 132.787 142.202 132.787 142.201L132.789 142.203C132.931 142.378 133.067 142.437 133.17 142.459C133.284 142.483 133.392 142.469 133.468 142.45L133.474 142.449L133.474 142.449C133.589 142.423 133.725 142.365 133.863 142.224C133.963 142.119 134.182 141.779 134.385 141.18L134.386 141.178C134.721 140.199 135.123 138.485 135.475 136.889C135.582 136.404 135.685 135.926 135.78 135.487C135.991 134.511 136.162 133.72 136.249 133.429C136.249 133.429 136.249 133.429 136.249 133.429L136.728 133.573C139.15 125.53 142.613 118.34 146.202 110.887C146.685 109.883 147.171 108.875 147.656 107.86L133.235 140.243ZM133.235 140.243L133.571 138.864C134.112 136.644 134.863 133.588 135.024 133.06L135.025 133.058C137.478 124.906 140.987 117.617 144.646 110.013C145.113 109.045 145.581 108.071 146.051 107.09C146.204 106.77 146.586 106.636 146.903 106.788C147.22 106.94 147.357 107.324 147.205 107.645L133.235 140.243Z" fill="black" stroke="black"/>
</g>
</g>
<defs>
<filter id="filter0_d_1_65" x="26.7224" y="50.9785" width="121.045" height="95.9929" filterUnits="userSpaceOnUse" color-interpolation-filters="sRGB">
<feFlood flood-opacity="0" result="BackgroundImageFix"/>
<feColorMatrix in="SourceAlpha" type="matrix" values="0 0 0 0 0 0 0 0 0 0 0 0 0 0 0 0 0 0 127 0" result="hardAlpha"/>
<feOffset dx="-1" dy="4"/>
<feComposite in2="hardAlpha" operator="out"/>
<feColorMatrix type="matrix" values="0 0 0 0 0 0 0 0 0 0 0 0 0 0 0 0 0 0 1 0"/>
<feBlend mode="normal" in2="BackgroundImageFix" result="effect1_dropShadow_1_65"/>
<feBlend mode="normal" in="SourceGraphic" in2="effect1_dropShadow_1_65" result="shape"/>
</filter>
<clipPath id="clip0_1_65">
<rect width="130" height="130" fill="white" transform="translate(88.916) rotate(42.6258)"/>
</clipPath>
</defs>
</svg>
