<svg width="77" height="90" viewBox="0 0 77 90" fill="none" xmlns="http://www.w3.org/2000/svg">
<path d="M60.3123 14.6693C59.7245 13.7693 54.4704 13.013 48.4493 12.8365C39.085 12.5917 37.5036 12.9528 36.9488 14.8557C35.3623 19.6249 37.5631 20.6962 48.5088 20.58C60.3783 20.2753 63.3684 18.8955 60.3123 14.6693Z" fill="black"/>
<path d="M42.8303 43.4144C31.2927 35.8189 27.7531 34.6936 28.0062 38.9527C28.109 40.683 32.0494 44.0552 39.8351 49.2023C46.3676 53.489 52.0461 56.8915 52.7116 56.8519C53.244 56.8203 53.6894 55.3245 53.5865 53.5943C53.4442 51.1985 50.7571 48.6868 42.8303 43.4144Z" fill="black"/>
<path d="M28.5194 66.7432C22.4612 56.952 15.2763 48.4299 13.8676 49.4486C11.4336 51.1961 12.8767 55.251 19.1062 63.4291C22.4523 68.0387 26.0803 72.8987 27.1069 74.4405C28.1335 75.9824 29.4105 77.2421 30.076 77.2026C32.8711 77.0365 32.2107 72.668 28.5194 66.7432Z" fill="black"/>
</svg>
