<svg width="48" height="49" viewBox="0 0 48 49" fill="none" xmlns="http://www.w3.org/2000/svg">
<path d="M44 24.5C44.0034 27.1343 43.4847 29.7432 42.4739 32.1759C41.4631 34.6085 39.9802 36.8168 38.111 38.673C36.2571 40.5237 34.0566 41.9909 31.6353 42.9907C29.2141 43.9905 26.6195 44.5034 24 44.5C12.954 44.5 3.99999 35.546 3.99999 24.5C3.99299 19.3718 5.96286 14.4382 9.49999 10.725C11.3663 8.75562 13.6149 7.18776 16.1081 6.1174C18.6013 5.04704 21.2867 4.49668 24 4.50002C26.6195 4.49662 29.2141 5.0095 31.6353 6.00933C34.0566 7.00916 36.2571 8.47634 38.111 10.327C39.9802 12.1832 41.4631 14.3915 42.4739 16.8242C43.4847 19.2568 44.0034 21.8657 44 24.5Z" stroke="black" stroke-width="3" stroke-linecap="round" stroke-linejoin="round"/>
<path d="M44 24.5C41.082 24.5 33.032 23.4 25.827 26.563C18 30 12.333 35.332 9.86298 38.647" stroke="black" stroke-width="3" stroke-linecap="round" stroke-linejoin="round"/>
<path d="M16.5 5.9541C19.63 8.8431 26.46 16.1981 29 23.5001C31.54 30.8021 32.48 39.7801 33.06 42.3351" stroke="black" stroke-width="3" stroke-linecap="round" stroke-linejoin="round"/>
<path d="M4.15399 22C7.93199 22.228 17.933 22.433 24.333 19.7C30.733 16.967 36.24 11.94 38.129 10.345M5.49999 32.113C7.2623 36.3789 10.4407 39.9072 14.5 42.104" stroke="black" stroke-width="3" stroke-linecap="round" stroke-linejoin="round"/>
<path d="M3.99999 24.5C3.99299 19.3718 5.96286 14.4382 9.49999 10.725C11.3663 8.75561 13.6149 7.18776 16.1081 6.1174C18.6013 5.04704 21.2867 4.49668 24 4.50002M32 6.16402C34.2776 7.16055 36.3499 8.57225 38.111 10.327C39.9802 12.1832 41.4631 14.3915 42.4739 16.8242C43.4847 19.2568 44.0034 21.8657 44 24.5C44 26.962 43.555 29.321 42.74 31.5M24 44.5C26.6195 44.5034 29.2141 43.9905 31.6353 42.9907C34.0566 41.9909 36.2571 40.5237 38.111 38.673" stroke="black" stroke-width="3" stroke-linecap="round" stroke-linejoin="round"/>
</svg>
