<svg width="97" height="89" viewBox="0 0 97 89" fill="none" xmlns="http://www.w3.org/2000/svg">
<g filter="url(#filter0_d_1_10)">
<path d="M64.5679 -24.4097V-1.81953L52.7817 -7.71263C46.2993 -10.8556 40.2098 -13.6057 39.0311 -13.6057C34.5131 -13.6057 37.6561 -7.5162 46.1029 -0.0516052C52.1924 5.25218 54.3532 8.19873 52.5853 8.78804C51.0138 9.37735 39.424 12.5203 26.4592 15.6633C2.29751 21.5564 -2.61341 24.1101 1.11889 27.8424C2.49394 29.2174 11.9229 28.6281 32.9416 25.4852C49.4423 23.1279 63.3893 21.7529 63.9786 22.3422C64.5679 23.1279 61.2285 30.0032 56.7104 37.8607C51.996 45.7181 48.0672 52.7898 47.6744 53.3792C47.2815 54.1649 48.2637 55.7364 49.6387 56.915C51.996 58.8794 53.9603 57.8972 60.2463 52.397C64.5679 48.4682 68.8895 45.3252 69.8717 45.3252C70.8539 45.3252 72.8182 51.2183 74.3897 58.4865C77.7292 75.38 80.0864 80.6838 84.408 80.6838C89.7118 80.6838 90.694 74.5943 89.1225 52.0041C88.3367 40.6108 88.3367 31.5747 89.3189 31.5747C90.3011 31.5747 98.1586 34.7177 106.802 38.45C123.892 45.9146 129.392 46.8967 129.392 42.5751C129.392 38.6464 126.249 35.8963 111.123 25.4852C103.855 20.7707 97.9621 16.2526 97.9621 15.6633C97.9621 15.074 107.98 11.7346 120.159 8.19873C141.964 1.91277 151 -2.21241 151 -5.74827C151 -8.69482 138.624 -8.10551 118.981 -4.56965C109.552 -2.80172 101.105 -1.81953 100.516 -2.60528C99.9265 -3.19459 101.302 -8.30194 103.659 -13.8022C112.498 -35.2138 106.998 -37.1781 93.2476 -17.338C88.1403 -9.67699 83.0329 -4.17677 82.2472 -5.15896C81.4614 -5.9447 79.3007 -13.8022 77.3363 -22.4454C73.4075 -40.9104 70.8539 -47 67.1216 -47C65.1572 -47 64.5679 -41.8926 64.5679 -24.4097Z" fill="#F3ABCB"/>
<path d="M65.5679 -1.81953V-0.2015L64.1207 -0.92511L52.3454 -6.81282C52.3436 -6.81371 52.3417 -6.81461 52.3399 -6.81551C49.1059 -8.38345 45.9788 -9.84902 43.5181 -10.921C42.2856 -11.4579 41.2321 -11.8909 40.4214 -12.1879C40.0152 -12.3367 39.6827 -12.4466 39.4261 -12.5181C39.2981 -12.5538 39.1981 -12.5773 39.1233 -12.5914C39.043 -12.6065 39.0179 -12.6057 39.0311 -12.6057C38.5659 -12.6057 38.3047 -12.5254 38.1725 -12.4528C38.0684 -12.3957 38.0265 -12.3373 37.9991 -12.2471C37.9128 -11.9628 37.9719 -11.2826 38.5924 -10.0892C39.7837 -7.79828 42.5705 -4.50813 46.7623 -0.80336C49.811 1.85213 51.9463 3.97559 53.097 5.54478C53.6529 6.30278 54.0884 7.07346 54.1685 7.79364C54.2122 8.18698 54.1555 8.62219 53.8961 9.01125C53.6449 9.38808 53.2795 9.60737 52.9203 9.73037C52.05 10.0529 48.7101 10.9971 44.0515 12.2345C39.3305 13.4885 33.1854 15.0617 26.6962 16.6348C14.5887 19.5879 7.43284 21.6767 3.76665 23.4622C2.85997 23.9038 2.20804 24.3077 1.76046 24.6753C1.30995 25.0453 1.11885 25.3355 1.04521 25.5369C0.942873 25.8169 0.962452 26.2717 1.82599 27.1353C1.82411 27.1334 1.82314 27.1324 1.82323 27.1323C1.82419 27.1311 1.926 27.2094 2.26516 27.2956C2.61232 27.3838 3.10775 27.4557 3.77873 27.4982C5.11808 27.583 7.03052 27.5436 9.59263 27.3606C14.7093 26.9951 22.2902 26.0668 32.7937 24.4961L32.8002 24.4952C41.0609 23.3151 48.687 22.3802 54.3269 21.8137C57.1449 21.5307 59.4781 21.3385 61.1506 21.2544C61.9839 21.2125 62.6727 21.1964 63.1828 21.2118C63.4347 21.2194 63.6704 21.2354 63.8691 21.2665C63.9675 21.282 64.0831 21.305 64.1985 21.3432C64.2895 21.3733 64.5004 21.4498 64.6857 21.6351L64.736 21.6853L64.7786 21.7422C64.9804 22.0113 65.0281 22.3056 65.0412 22.4884C65.0554 22.6872 65.037 22.887 65.0087 23.0674C64.9518 23.4299 64.8308 23.8567 64.6729 24.3176C64.3541 25.248 63.8322 26.4659 63.1635 27.8776C61.8223 30.7091 59.844 34.4172 57.5773 38.3591L57.5727 38.3672L57.5679 38.3752C55.2154 42.296 53.0582 46.0221 51.4391 48.8432C50.9308 49.7289 50.4714 50.5329 50.0741 51.2282C49.3356 52.5204 48.8118 53.4371 48.5877 53.8047C48.589 53.8237 48.5924 53.8518 48.6006 53.8908C48.6304 54.0318 48.7088 54.2383 48.8598 54.5C49.1599 55.0203 49.6671 55.6212 50.2841 56.1511C50.7902 56.5719 51.1911 56.764 51.5646 56.8238C51.935 56.8831 52.4 56.8315 53.0684 56.5391C54.4711 55.9254 56.4146 54.4207 59.5807 51.6506C61.761 49.669 63.9462 47.8805 65.7204 46.5811C66.6066 45.932 67.405 45.3941 68.0575 45.0138C68.3827 44.8242 68.6889 44.6636 68.9627 44.5474C69.2054 44.4444 69.5365 44.3252 69.8717 44.3252C70.468 44.3252 70.8657 44.7361 71.0416 44.9406C71.2649 45.2004 71.4697 45.5362 71.658 45.8977C72.0393 46.6301 72.4451 47.6493 72.8564 48.8582C73.6828 51.2873 74.5762 54.617 75.3671 58.2752L75.369 58.2839L75.3708 58.2926C77.042 66.7469 78.4485 72.19 79.9425 75.5099C80.687 77.1643 81.4176 78.2078 82.1429 78.8345C82.8376 79.4348 83.5616 79.6838 84.408 79.6838C85.5191 79.6838 86.2722 79.3778 86.8526 78.7186C87.4814 78.0044 88.0116 76.7595 88.3566 74.6536C89.0467 70.442 88.9121 63.3899 88.1249 52.0735L88.1248 52.0729C87.731 46.3625 87.533 41.2279 87.5577 37.5102C87.5701 35.6573 87.6378 34.1259 87.7708 33.0428C87.8362 32.5103 87.9236 32.0301 88.0504 31.6605C88.1121 31.4809 88.2054 31.2593 88.3575 31.0641C88.5106 30.8678 88.8276 30.5747 89.3189 30.5747C89.6042 30.5747 89.9673 30.6682 90.2728 30.7556C90.6249 30.8564 91.0665 31.0008 91.5795 31.1801C92.6077 31.5395 93.9662 32.0546 95.5551 32.6828C98.7353 33.94 102.871 35.6631 107.198 37.5319L107.202 37.5336C115.763 41.2728 121.306 43.3342 124.685 43.9485C126.402 44.2607 127.339 44.1533 127.811 43.9126C128.142 43.744 128.392 43.4322 128.392 42.5751C128.392 41.7469 128.231 41.0052 127.787 40.1905C127.329 39.3514 126.55 38.3988 125.25 37.1946C122.639 34.7749 118.141 31.5294 110.568 26.3166C106.921 23.951 103.616 21.6327 101.216 19.8263C100.016 18.9237 99.0314 18.1402 98.3397 17.5377C97.9965 17.2388 97.7071 16.9686 97.4962 16.741C97.3925 16.6292 97.287 16.5055 97.2011 16.3782C97.158 16.3143 97.1066 16.2302 97.0632 16.131C97.0241 16.0417 96.9621 15.8751 96.9621 15.6633C96.9621 15.3034 97.1421 15.0591 97.2161 14.9683C97.3065 14.8574 97.4051 14.776 97.4747 14.7234C97.6177 14.6154 97.7893 14.5173 97.9555 14.4309C98.2977 14.2532 98.7731 14.0461 99.3468 13.8169C100.503 13.3553 102.156 12.7651 104.176 12.0879C108.219 10.7317 113.783 9.00878 119.881 7.23838L119.882 7.23786C130.778 4.0967 138.429 1.51028 143.344 -0.716888C145.806 -1.83276 147.523 -2.83318 148.61 -3.73199C149.715 -4.64542 149.998 -5.30909 150 -5.74262C149.99 -5.757 149.956 -5.80112 149.863 -5.86454C149.646 -6.014 149.236 -6.18452 148.557 -6.3252C147.212 -6.60377 145.149 -6.70026 142.397 -6.59065C136.916 -6.37241 128.965 -5.35072 119.161 -3.58607C114.432 -2.69935 109.938 -2.00757 106.542 -1.63578C104.848 -1.45026 103.404 -1.3418 102.333 -1.33215C101.801 -1.32736 101.327 -1.34632 100.946 -1.40218C100.758 -1.42991 100.557 -1.47148 100.371 -1.53999C100.22 -1.59555 99.9646 -1.70898 99.7615 -1.94807C99.5993 -2.12935 99.5166 -2.32857 99.4717 -2.47558C99.4206 -2.64281 99.3976 -2.81127 99.3873 -2.96151C99.3668 -3.26095 99.3896 -3.60294 99.4349 -3.95686C99.5264 -4.67197 99.7305 -5.58914 100.019 -6.62917C100.597 -8.71619 101.545 -11.4084 102.737 -14.1901C104.935 -19.5151 106.217 -23.5732 106.71 -26.3526C106.959 -27.7522 106.994 -28.7524 106.888 -29.4007C106.836 -29.7204 106.757 -29.9035 106.696 -29.9988C106.645 -30.0782 106.612 -30.0894 106.598 -30.0941L106.598 -30.0944C106.526 -30.1192 106.187 -30.1568 105.41 -29.7147C104.679 -29.2983 103.746 -28.5609 102.619 -27.4534C100.373 -25.2462 97.4942 -21.7091 94.0748 -16.7759C91.5023 -12.9179 88.9201 -9.58823 86.866 -7.33379C85.8448 -6.21291 84.9221 -5.32227 84.1757 -4.7676C83.8129 -4.49793 83.4227 -4.25485 83.0385 -4.13292C82.6854 -4.02084 81.9912 -3.92381 81.5006 -4.493C81.2765 -4.73577 81.1058 -5.08127 80.9792 -5.36246C80.8244 -5.7065 80.6571 -6.14175 80.4808 -6.64565C80.1271 -7.6562 79.7155 -9.00478 79.2711 -10.5849C78.3812 -13.7487 77.3459 -17.8911 76.3611 -22.2238L76.3611 -22.2237L76.3582 -22.2373C74.3931 -31.473 72.7883 -37.5277 71.2322 -41.2624C70.4534 -43.1315 69.7189 -44.3382 69.0186 -45.0671C68.3467 -45.7665 67.736 -46 67.1216 -46C67.1208 -46 67.1204 -46.0003 67.1199 -46.0006C67.1184 -46.0018 67.1171 -46.0028 67.0962 -45.985C67.0474 -45.9435 66.9398 -45.8224 66.8089 -45.5254C66.5417 -44.9192 66.2961 -43.861 66.1017 -42.1482C65.7162 -38.7508 65.5679 -33.1586 65.5679 -24.4097V-1.81953Z" stroke="black" stroke-width="2"/>
</g>
<defs>
<filter id="filter0_d_1_10" x="0" y="-47" width="151" height="135.448" filterUnits="userSpaceOnUse" color-interpolation-filters="sRGB">
<feFlood flood-opacity="0" result="BackgroundImageFix"/>
<feColorMatrix in="SourceAlpha" type="matrix" values="0 0 0 0 0 0 0 0 0 0 0 0 0 0 0 0 0 0 127 0" result="hardAlpha"/>
<feOffset dy="7.76457"/>
<feComposite in2="hardAlpha" operator="out"/>
<feColorMatrix type="matrix" values="0 0 0 0 0.745098 0 0 0 0 0.74902 0 0 0 0 0.705882 0 0 0 1 0"/>
<feBlend mode="normal" in2="BackgroundImageFix" result="effect1_dropShadow_1_10"/>
<feBlend mode="normal" in="SourceGraphic" in2="effect1_dropShadow_1_10" result="shape"/>
</filter>
</defs>
</svg>
