<svg width="85" height="136" viewBox="0 0 85 136" fill="none" xmlns="http://www.w3.org/2000/svg">
<g filter="url(#filter0_d_1_11)">
<path d="M-1.4321 22.5903V45.1805L-13.2183 39.2874C-19.7007 36.1444 -25.7902 33.3943 -26.9689 33.3943C-31.4869 33.3943 -28.3439 39.4838 -19.8971 46.9484C-13.8076 52.2522 -11.6468 55.1987 -13.4147 55.788C-14.9862 56.3773 -26.576 59.5203 -39.5408 62.6633C-63.7025 68.5564 -68.6134 71.1101 -64.8811 74.8424C-63.5061 76.2174 -54.0771 75.6281 -33.0584 72.4852C-16.5577 70.1279 -2.61071 68.7529 -2.0214 69.3422C-1.4321 70.1279 -4.77152 77.0032 -9.28956 84.8607C-14.004 92.7181 -17.9328 99.7898 -18.3256 100.379C-18.7185 101.165 -17.7363 102.736 -16.3613 103.915C-14.004 105.879 -12.0397 104.897 -5.7537 99.397C-1.4321 95.4682 2.88951 92.3252 3.87169 92.3252C4.85387 92.3252 6.81824 98.2183 8.38973 105.487C11.7292 122.38 14.0864 127.684 18.408 127.684C23.7118 127.684 24.694 121.594 23.1225 99.0041C22.3367 87.6108 22.3367 78.5747 23.3189 78.5747C24.3011 78.5747 32.1586 81.7177 40.8018 85.45C57.8918 92.9146 63.392 93.8967 63.392 89.5751C63.392 85.6464 60.249 82.8963 45.1234 72.4852C37.8552 67.7707 31.9621 63.2526 31.9621 62.6633C31.9621 62.074 41.9804 58.7346 54.1595 55.1987C75.9639 48.9128 85 44.7876 85 41.2517C85 38.3052 72.6245 38.8945 52.9808 42.4304C43.5519 44.1983 35.1051 45.1805 34.5158 44.3947C33.9265 43.8054 35.3015 38.6981 37.6588 33.1978C46.4984 11.7862 40.9982 9.82188 27.2476 29.662C22.1403 37.323 17.0329 42.8232 16.2472 41.841C15.4614 41.0553 13.3007 33.1978 11.3363 24.5546C7.40755 6.08958 4.85387 4.57764e-05 1.12158 4.57764e-05C-0.842789 4.57764e-05 -1.4321 5.1074 -1.4321 22.5903Z" fill="#F3ABCB"/>
<path d="M-0.432098 45.1805V46.7985L-1.87931 46.0749L-13.6546 40.1872C-13.6564 40.1863 -13.6583 40.1854 -13.6601 40.1845C-16.8941 38.6166 -20.0212 37.151 -22.4819 36.079C-23.7144 35.5421 -24.7679 35.1091 -25.5786 34.8121C-25.9848 34.6633 -26.3173 34.5534 -26.5739 34.4819C-26.7019 34.4462 -26.8019 34.4227 -26.8767 34.4086C-26.957 34.3935 -26.9821 34.3943 -26.9689 34.3943C-27.4341 34.3943 -27.6953 34.4746 -27.8275 34.5472C-27.9316 34.6043 -27.9735 34.6627 -28.0009 34.7529C-28.0872 35.0372 -28.0281 35.7174 -27.4076 36.9108C-26.2163 39.2017 -23.4295 42.4919 -19.2377 46.1966C-16.189 48.8521 -14.0537 50.9756 -12.903 52.5448C-12.3471 53.3028 -11.9116 54.0735 -11.8315 54.7936C-11.7878 55.187 -11.8445 55.6222 -12.1039 56.0113C-12.3551 56.3881 -12.7205 56.6074 -13.0797 56.7304C-13.95 57.0529 -17.2899 57.9971 -21.9485 59.2345C-26.6695 60.4885 -32.8146 62.0617 -39.3038 63.6348C-51.4113 66.5879 -58.5672 68.6767 -62.2334 70.4622C-63.14 70.9038 -63.792 71.3077 -64.2395 71.6753C-64.6901 72.0453 -64.8811 72.3355 -64.9548 72.5369C-65.0571 72.8169 -65.0375 73.2717 -64.174 74.1353C-64.1759 74.1334 -64.1769 74.1324 -64.1768 74.1323C-64.1758 74.1311 -64.074 74.2094 -63.7348 74.2956C-63.3877 74.3838 -62.8923 74.4557 -62.2213 74.4982C-60.8819 74.583 -58.9695 74.5436 -56.4074 74.3606C-51.2907 73.9951 -43.7098 73.0668 -33.2063 71.4961L-33.1998 71.4952C-24.9391 70.3151 -17.313 69.3802 -11.6731 68.8137C-8.85514 68.5307 -6.52192 68.3385 -4.84936 68.2544C-4.01613 68.2125 -3.32727 68.1964 -2.81725 68.2118C-2.56531 68.2194 -2.32959 68.2354 -2.13089 68.2665C-2.03249 68.282 -1.91693 68.305 -1.80147 68.3432C-1.71048 68.3733 -1.49957 68.4498 -1.3143 68.6351L-1.26405 68.6853L-1.22141 68.7422C-1.01957 69.0113 -0.971863 69.3056 -0.958817 69.4884C-0.944633 69.6872 -0.962975 69.887 -0.99131 70.0674C-1.04822 70.4299 -1.16915 70.8567 -1.32709 71.3176C-1.64588 72.248 -2.16777 73.4659 -2.83649 74.8776C-4.17773 77.7091 -6.15602 81.4172 -8.42265 85.3591L-8.42728 85.3672L-8.43206 85.3752C-10.7846 89.296 -12.9418 93.0221 -14.5609 95.8432C-15.0692 96.7289 -15.5286 97.5329 -15.9259 98.2282C-16.6644 99.5204 -17.1882 100.437 -17.4123 100.805C-17.411 100.824 -17.4076 100.852 -17.3994 100.891C-17.3696 101.032 -17.2912 101.238 -17.1402 101.5C-16.8401 102.02 -16.3329 102.621 -15.7159 103.151C-15.2098 103.572 -14.8089 103.764 -14.4354 103.824C-14.065 103.883 -13.6 103.831 -12.9316 103.539C-11.5289 102.925 -9.58543 101.421 -6.41927 98.6506C-4.23902 96.669 -2.05377 94.8805 -0.279594 93.5811C0.606644 92.932 1.40498 92.3941 2.05749 92.0138C2.38267 91.8242 2.68889 91.6636 2.96272 91.5474C3.2054 91.4444 3.53654 91.3252 3.87169 91.3252C4.46801 91.3252 4.86568 91.7361 5.04156 91.9406C5.26495 92.2004 5.46969 92.5362 5.65795 92.8977C6.03934 93.6301 6.44514 94.6493 6.85643 95.8582C7.68282 98.2873 8.57619 101.617 9.36715 105.275L9.36903 105.284L9.37075 105.293C11.042 113.747 12.4485 119.19 13.9425 122.51C14.687 124.164 15.4176 125.208 16.1429 125.835C16.8376 126.435 17.5616 126.684 18.408 126.684C19.5191 126.684 20.2722 126.378 20.8526 125.719C21.4814 125.004 22.0116 123.759 22.3566 121.654C23.0467 117.442 22.9121 110.39 22.1249 99.0735L22.1248 99.0729C21.731 93.3625 21.533 88.2279 21.5577 84.5102C21.5701 82.6573 21.6378 81.1259 21.7708 80.0428C21.8362 79.5103 21.9236 79.0301 22.0504 78.6605C22.1121 78.4809 22.2054 78.2593 22.3575 78.0641C22.5106 77.8678 22.8276 77.5747 23.3189 77.5747C23.6042 77.5747 23.9673 77.6682 24.2728 77.7556C24.6249 77.8564 25.0665 78.0008 25.5795 78.1801C26.6077 78.5395 27.9662 79.0546 29.5551 79.6828C32.7353 80.94 36.8706 82.6631 41.1982 84.5319L41.202 84.5336C49.763 88.2728 55.3061 90.3342 58.6845 90.9485C60.4016 91.2607 61.3391 91.1533 61.8114 90.9126C62.1419 90.744 62.392 90.4322 62.392 89.5751C62.392 88.7469 62.2314 88.0052 61.7868 87.1905C61.3288 86.3514 60.5497 85.3988 59.2501 84.1946C56.6388 81.7749 52.1407 78.5294 44.5676 73.3166C40.9212 70.951 37.6161 68.6327 35.2159 66.8263C34.0165 65.9237 33.0314 65.1402 32.3397 64.5377C31.9965 64.2388 31.7071 63.9686 31.4962 63.741C31.3925 63.6292 31.287 63.5055 31.2011 63.3782C31.158 63.3143 31.1066 63.2302 31.0632 63.131C31.0241 63.0417 30.9621 62.8751 30.9621 62.6633C30.9621 62.3034 31.1421 62.0591 31.2161 61.9683C31.3065 61.8574 31.4051 61.776 31.4747 61.7234C31.6177 61.6154 31.7893 61.5173 31.9555 61.4309C32.2977 61.2532 32.7731 61.0461 33.3468 60.8169C34.5025 60.3553 36.1563 59.7651 38.1757 59.0879C42.2195 57.7317 47.7826 56.0088 53.8806 54.2384L53.8824 54.2379C64.7784 51.0967 72.4293 48.5103 77.3436 46.2831C79.8058 45.1672 81.5232 44.1668 82.6102 43.268C83.7149 42.3546 83.9976 41.6909 84 41.2574C83.9903 41.243 83.9557 41.1989 83.8634 41.1355C83.646 40.986 83.2358 40.8155 82.5566 40.6748C81.2116 40.3962 79.149 40.2997 76.3966 40.4093C70.9163 40.6276 62.9654 41.6493 53.1613 43.4139C48.4317 44.3007 43.938 44.9924 40.5423 45.3642C38.8479 45.5497 37.4039 45.6582 36.3326 45.6678C35.8013 45.6726 35.327 45.6537 34.9464 45.5978C34.7576 45.5701 34.5574 45.5285 34.3713 45.46C34.2203 45.4044 33.9646 45.291 33.7615 45.0519C33.5993 44.8707 33.5166 44.6714 33.4717 44.5244C33.4206 44.3572 33.3976 44.1887 33.3873 44.0385C33.3668 43.7391 33.3896 43.3971 33.4349 43.0431C33.5264 42.328 33.7305 41.4109 34.0187 40.3708C34.597 38.2838 35.5452 35.5916 36.7371 32.8099C38.9352 27.4849 40.2166 23.4268 40.7104 20.6474C40.959 19.2478 40.9936 18.2476 40.8879 17.5993C40.8358 17.2796 40.7574 17.0965 40.696 17.0012C40.6448 16.9218 40.6121 16.9106 40.5984 16.9059L40.5978 16.9056C40.526 16.8808 40.1866 16.8432 39.4101 17.2853C38.6787 17.7017 37.7464 18.4391 36.6194 19.5466C34.3735 21.7538 31.4942 25.2909 28.0748 30.2241C25.5023 34.0821 22.9201 37.4118 20.866 39.6662C19.8448 40.7871 18.9221 41.6777 18.1757 42.2324C17.8129 42.5021 17.4227 42.7451 17.0385 42.8671C16.6854 42.9792 15.9912 43.0762 15.5006 42.507C15.2765 42.2642 15.1058 41.9187 14.9792 41.6375C14.8244 41.2935 14.6571 40.8583 14.4808 40.3544C14.1271 39.3438 13.7155 37.9952 13.2711 36.4151C12.3812 33.2513 11.3459 29.1089 10.3611 24.7762L10.3611 24.7763L10.3582 24.7627C8.39312 15.527 6.78833 9.4723 5.23219 5.73756C4.45342 3.86852 3.71893 2.66183 3.01858 1.93285C2.34667 1.23346 1.73602 1.00005 1.12158 1.00005C1.12078 1.00005 1.12035 0.999725 1.11994 0.999413C1.11839 0.998238 1.11707 0.997238 1.09618 1.01502C1.04744 1.05653 0.939827 1.17757 0.808891 1.4746C0.541656 2.08083 0.296089 3.13899 0.101723 4.85183C-0.283783 8.24915 -0.432098 13.8414 -0.432098 22.5903V45.1805Z" stroke="black" stroke-width="2"/>
</g>
<defs>
<filter id="filter0_d_1_11" x="-66" y="0" width="151" height="135.448" filterUnits="userSpaceOnUse" color-interpolation-filters="sRGB">
<feFlood flood-opacity="0" result="BackgroundImageFix"/>
<feColorMatrix in="SourceAlpha" type="matrix" values="0 0 0 0 0 0 0 0 0 0 0 0 0 0 0 0 0 0 127 0" result="hardAlpha"/>
<feOffset dy="7.76457"/>
<feComposite in2="hardAlpha" operator="out"/>
<feColorMatrix type="matrix" values="0 0 0 0 0.745098 0 0 0 0 0.74902 0 0 0 0 0.705882 0 0 0 1 0"/>
<feBlend mode="normal" in2="BackgroundImageFix" result="effect1_dropShadow_1_11"/>
<feBlend mode="normal" in="SourceGraphic" in2="effect1_dropShadow_1_11" result="shape"/>
</filter>
</defs>
</svg>
