<svg width="48" height="49" viewBox="0 0 48 49" fill="none" xmlns="http://www.w3.org/2000/svg">
<path d="M24.002 18.5C22.4107 18.5 20.8846 19.1321 19.7594 20.2574C18.6341 21.3826 18.002 22.9087 18.002 24.5C18.002 26.0913 18.6341 27.6174 19.7594 28.7426C20.8846 29.8679 22.4107 30.5 24.002 30.5C25.5933 30.5 27.1194 29.8679 28.2446 28.7426C29.3699 27.6174 30.002 26.0913 30.002 24.5C30.002 22.9087 29.3699 21.3826 28.2446 20.2574C27.1194 19.1321 25.5933 18.5 24.002 18.5ZM24.002 14.5C26.6542 14.5 29.1977 15.5536 31.0731 17.4289C32.9484 19.3043 34.002 21.8478 34.002 24.5C34.002 27.1522 32.9484 29.6957 31.0731 31.5711C29.1977 33.4464 26.6542 34.5 24.002 34.5C21.3498 34.5 18.8063 33.4464 16.9309 31.5711C15.0556 29.6957 14.002 27.1522 14.002 24.5C14.002 21.8478 15.0556 19.3043 16.9309 17.4289C18.8063 15.5536 21.3498 14.5 24.002 14.5ZM37.002 14C37.002 14.663 36.7386 15.2989 36.2698 15.7678C35.8009 16.2366 35.165 16.5 34.502 16.5C33.839 16.5 33.2031 16.2366 32.7342 15.7678C32.2654 15.2989 32.002 14.663 32.002 14C32.002 13.337 32.2654 12.7011 32.7342 12.2322C33.2031 11.7634 33.839 11.5 34.502 11.5C35.165 11.5 35.8009 11.7634 36.2698 12.2322C36.7386 12.7011 37.002 13.337 37.002 14ZM24.002 8.5C19.054 8.5 18.246 8.514 15.944 8.616C14.376 8.69 13.324 8.9 12.348 9.28C11.5312 9.57988 10.7928 10.0605 10.188 10.686C9.56201 11.2908 9.08071 12.0292 8.78 12.846C8.4 13.826 8.19 14.876 8.118 16.442C8.014 18.65 8 19.422 8 24.5C8 29.45 8.014 30.256 8.116 32.558C8.19 34.124 8.4 35.178 8.778 36.152C9.118 37.022 9.518 37.648 10.182 38.312C10.856 38.984 11.482 39.386 12.342 39.718C13.33 40.1 14.382 40.312 15.942 40.384C18.15 40.488 18.922 40.5 24 40.5C28.95 40.5 29.756 40.486 32.058 40.384C33.622 40.31 34.674 40.1 35.652 39.722C36.468 39.4206 37.2061 38.9402 37.812 38.316C38.486 37.644 38.888 37.018 39.22 36.156C39.6 35.172 39.812 34.12 39.884 32.556C39.988 30.35 40 29.576 40 24.5C40 19.552 39.986 18.744 39.884 16.442C39.81 14.878 39.598 13.822 39.22 12.846C38.9185 12.03 38.4381 11.292 37.814 10.686C37.2095 10.0597 36.471 9.57833 35.654 9.278C34.674 8.898 33.622 8.688 32.058 8.616C29.852 8.512 29.08 8.5 24 8.5M24 4.5C29.434 4.5 30.112 4.52 32.246 4.62C34.374 4.72 35.826 5.054 37.1 5.55C38.42 6.058 39.532 6.746 40.644 7.856C41.661 8.85579 42.4479 10.0652 42.95 11.4C43.444 12.674 43.78 14.126 43.88 16.256C43.974 18.388 44 19.066 44 24.5C44 29.934 43.98 30.612 43.88 32.744C43.78 34.874 43.444 36.324 42.95 37.6C42.4493 38.9355 41.6622 40.1452 40.644 41.144C39.6439 42.1606 38.4346 42.9475 37.1 43.45C35.826 43.944 34.374 44.28 32.246 44.38C30.112 44.474 29.434 44.5 24 44.5C18.566 44.5 17.888 44.48 15.754 44.38C13.626 44.28 12.176 43.944 10.9 43.45C9.56465 42.9489 8.35505 42.1619 7.356 41.144C6.33886 40.1443 5.55192 38.9349 5.05 37.6C4.554 36.326 4.22 34.874 4.12 32.744C4.024 30.612 4 29.934 4 24.5C4 19.066 4.02 18.388 4.12 16.256C4.22 14.126 4.554 12.676 5.05 11.4C5.55047 10.0644 6.33761 8.85464 7.356 7.856C8.35534 6.83846 9.56486 6.05146 10.9 5.55C12.174 5.054 13.624 4.72 15.754 4.62C17.89 4.526 18.568 4.5 24.002 4.5" fill="black"/>
</svg>
