<svg width="154" height="87" viewBox="0 0 154 87" fill="none" xmlns="http://www.w3.org/2000/svg">
<path d="M26.5479 53.4032C25.6713 54.8025 26.9271 58.8123 28.7001 60.2898C30.0602 61.3948 31.0665 60.8881 31.3315 58.9481C31.6359 56.9034 30.1377 54.0008 28.4323 53.2712C27.1328 52.701 26.9764 52.7298 26.5479 53.4032Z" fill="black"/>
<path d="M14.8403 54.3339C13.9636 55.7332 15.2195 59.743 16.9925 61.2205C18.3526 62.3255 19.3589 61.8187 19.6239 59.8788C19.9283 57.834 18.43 54.9314 16.7247 54.2019C15.4252 53.6317 15.2687 53.6604 14.8403 54.3339Z" fill="black"/>
<path d="M9.88197 65.7076C10.2414 67.9227 14.3541 72.0019 18.0101 73.7376C19.1376 74.3005 21.0826 74.7032 22.8021 74.777C25.5025 74.8752 25.8859 74.7852 29.3742 73.1787C32.7215 71.6371 33.2387 71.269 34.844 69.4043C36.8891 66.9908 38.8425 61.806 38.2223 60.3602C37.6797 59.0951 36.8918 59.7177 35.3133 62.8253C33.5657 66.2273 32.5918 67.4982 30.558 68.9543C28.6145 70.3255 24.9796 71.3935 22.6935 71.2777C19.9776 71.1434 14.8713 68.3875 12.0947 65.5542C10.6811 64.1276 9.64517 64.1718 9.88197 65.7076Z" fill="black"/>
<g filter="url(#filter0_d_1_69)">
<path d="M56.6247 67.1308L54.6895 62.6596L59.3133 48.0816L59.129 47.6557L50.1867 51.5262L48.8274 48.3858L61.4424 42.9256L63.3777 47.3968L58.7539 61.9748L58.9382 62.4006L68.1999 58.3919L69.5592 61.5324L56.6247 67.1308ZM71.2138 60.8162L68.0473 40.0668L74.1685 37.4174L87.129 53.9277L83.5095 55.4943L80.7242 51.8335L74.0707 54.7133L74.8333 59.2496L71.2138 60.8162ZM73.4904 51.1093L78.4938 48.9437L72.3035 40.8474L71.8245 41.0548L73.4904 51.1093ZM89.3589 52.9625L81.2954 34.3327L84.8085 32.8121L92.872 51.4419L89.3589 52.9625ZM96.3763 49.9252L88.3128 31.2954L94.9929 28.404L105.719 43.0374L106.198 42.83L99.1713 26.5955L102.631 25.098L110.695 43.7278L104.015 46.6191L93.2884 31.9858L92.8094 32.1931L99.8361 48.4277L96.3763 49.9252ZM112.928 42.7611L109.762 22.0117L115.883 19.3623L128.843 35.8725L125.224 37.4392L122.439 33.7783L115.785 36.6582L116.548 41.1945L112.928 42.7611ZM115.205 33.0542L120.208 30.8885L114.018 22.7923L113.539 22.9996L115.205 33.0542ZM130.541 35.1377L129.205 32.0505L131.653 30.9907L126.262 18.5354L123.814 19.5951L122.478 16.5079L132.059 12.361C133.194 11.8695 134.263 11.6384 135.266 11.6678C136.279 11.6718 137.17 11.9288 137.938 12.4389C138.717 12.9235 139.317 13.6537 139.74 14.6296L139.855 14.8957C140.223 15.7474 140.367 16.5173 140.286 17.2056C140.197 17.8761 139.996 18.4581 139.683 18.9518C139.38 19.4199 139.06 19.8006 138.724 20.0938L138.931 20.5728C139.367 20.5103 139.881 20.5301 140.473 20.632C141.057 20.7162 141.628 20.9642 142.186 21.376C142.761 21.7801 143.24 22.4258 143.624 23.3129L143.74 23.579C144.185 24.6081 144.329 25.5989 144.173 26.5515C144.009 27.4863 143.585 28.3331 142.903 29.0921C142.238 29.8434 141.346 30.4609 140.229 30.9447L130.541 35.1377ZM135.12 29.3637L138.42 27.9353C139.183 27.6051 139.715 27.1539 140.015 26.5816C140.333 26.0017 140.342 25.3657 140.042 24.6738L139.927 24.4076C139.628 23.7157 139.167 23.2832 138.544 23.1103C137.921 22.9373 137.22 23.0198 136.439 23.3577L133.139 24.7861L135.12 29.3637ZM131.757 21.5924L135.004 20.1871C135.731 19.8722 136.245 19.4287 136.545 18.8564C136.863 18.2765 136.879 17.6582 136.595 17.0018L136.48 16.7356C136.188 16.0614 135.735 15.6467 135.12 15.4915C134.497 15.3186 133.813 15.3934 133.068 15.7159L129.821 17.1213L131.757 21.5924Z" fill="black"/>
</g>
<defs>
<filter id="filter0_d_1_69" x="48.5612" y="9.8728" width="97.3095" height="61.2581" filterUnits="userSpaceOnUse" color-interpolation-filters="sRGB">
<feFlood flood-opacity="0" result="BackgroundImageFix"/>
<feColorMatrix in="SourceAlpha" type="matrix" values="0 0 0 0 0 0 0 0 0 0 0 0 0 0 0 0 0 0 127 0" result="hardAlpha"/>
<feOffset dy="4"/>
<feComposite in2="hardAlpha" operator="out"/>
<feColorMatrix type="matrix" values="0 0 0 0 0.906944 0 0 0 0 0.906944 0 0 0 0 0.906944 0 0 0 0.32 0"/>
<feBlend mode="normal" in2="BackgroundImageFix" result="effect1_dropShadow_1_69"/>
<feBlend mode="normal" in="SourceGraphic" in2="effect1_dropShadow_1_69" result="shape"/>
</filter>
</defs>
</svg>
