<svg width="48" height="49" viewBox="0 0 48 49" fill="none" xmlns="http://www.w3.org/2000/svg">
<path d="M26.1465 18.7891L16.524 4.36129L16.4498 4.25H16.316H5H4.53271L4.79203 4.63874L19.5243 26.7232L4.80814 44.3397L4.46541 44.75H5H8.352H8.46892L8.54387 44.6603L21.3016 29.3868L31.476 44.6387L31.5503 44.75H31.684H43H43.4673L43.208 44.3613L27.9277 21.4548L41.9519 4.66024L42.2945 4.25H41.76H38.408H38.2911L38.2161 4.33973L26.1465 18.7891ZM23.2309 26.7936L23.2308 26.7935L21.7269 24.5796L21.7268 24.5795L10.0318 7.35H14.5775L24.1551 21.4604L24.1551 21.4604L25.6571 23.6744L25.6571 23.6744L37.9382 41.768H33.3945L23.2309 26.7936Z" fill="black" stroke="black" stroke-width="0.5"/>
</svg>
